<svg
   viewBox="0 0 375.27451 271.32324"
   width="375"
   height="271"
   id="svg24"
   xmlns:xlink="http://www.w3.org/1999/xlink"
   xmlns="http://www.w3.org/2000/svg"
   xmlns:svg="http://www.w3.org/2000/svg">
  <defs
     id="defs19">
    <linearGradient
       xlink:href="#treeMidL-3"
       id="linearGradient35"
       x1="157.10509"
       y1="36.088932"
       x2="158.87071"
       y2="159.33817"
       gradientUnits="userSpaceOnUse" />
    <linearGradient
       id="treeMidL-3"
       x1="0"
       y1="0"
       x2="0"
       y2="1">
      <stop
         offset="0%"
         stop-color="#8fd4b0"
         stop-opacity="0.92"
         id="stop5-6" />
      <stop
         offset="0.19739233"
         stop-color="#097438"
         stop-opacity="0.85"
         id="stop6-7" />
      <stop
         offset="0.4471353"
         stop-color="#013C1A"
         stop-opacity="0.6"
         id="stop7-5" />
      <stop
         offset="100%"
         stop-color="#170230"
         stop-opacity="0"
         id="stop8-3" />
    </linearGradient>
    <radialGradient
       xlink:href="#treeFront-5"
       id="radialGradient45"
       cx="137.13655"
       cy="134.82954"
       fx="137.13655"
       fy="134.82954"
       r="48.993553"
       gradientTransform="matrix(-1.5422684,1.6238904,-1.570251,-1.491325,580.32267,14.46889)"
       gradientUnits="userSpaceOnUse" />
    <linearGradient
       id="treeFront-5"
       x1="0"
       y1="0"
       x2="0"
       y2="1">
      <stop
         offset="0"
         stop-color="#faf3cf"
         stop-opacity="1"
         id="stop1-6"
         style="stop-color:#faf3cf;stop-opacity:0.9;" />
      <stop
         offset="0.24684635"
         stop-color="#33a96a"
         stop-opacity="1"
         id="stop2-2" />
      <stop
         offset="0.70843959"
         stop-color="#065c2c"
         stop-opacity="0.85"
         id="stop3-9"
         style="stop-color:#360568;stop-opacity:0.55;" />
      <stop
         offset="0.8963992"
         stop-color="#065c2c"
         stop-opacity="0.85"
         id="stop45"
         style="stop-color:#044922;stop-opacity:0.9;" />
      <stop
         offset="1"
         stop-color="#260349"
         stop-opacity="0"
         id="stop4-1"
         style="stop-color:#260349;stop-opacity:0;" />
    </linearGradient>
    <linearGradient
       xlink:href="#treeMidL-3"
       id="linearGradient35-7"
       x1="157.10509"
       y1="36.088932"
       x2="158.87071"
       y2="159.33817"
       gradientUnits="userSpaceOnUse"
       gradientTransform="matrix(1.1461168,0,0,1.1461768,23.395718,-31.973054)" />
    <radialGradient
       xlink:href="#treeFront-5"
       id="radialGradient45-0"
       cx="137.13655"
       cy="134.82954"
       fx="137.13655"
       fy="134.82954"
       r="48.993553"
       gradientTransform="matrix(-1.7676197,1.8612655,-1.7996911,-1.7093221,688.51327,-15.389147)"
       gradientUnits="userSpaceOnUse" />
    <radialGradient
       xlink:href="#treeFront-5"
       id="radialGradient45-0-7"
       cx="137.13655"
       cy="134.82954"
       fx="137.13655"
       fy="134.82954"
       r="48.993553"
       gradientTransform="matrix(1.6702922,1.7834159,1.7005977,-1.6378278,-186.5671,1.0712343)"
       gradientUnits="userSpaceOnUse" />
    <linearGradient
       xlink:href="#treeMidL-3"
       id="linearGradient24"
       gradientUnits="userSpaceOnUse"
       gradientTransform="matrix(-1.0830101,0,0,1.0982366,441.92818,-14.819032)"
       x1="157.10509"
       y1="36.088932"
       x2="158.87071"
       y2="159.33817" />
    <radialGradient
       xlink:href="#treeFront-5"
       id="radialGradient45-0-9"
       cx="137.13655"
       cy="134.82954"
       fx="137.13655"
       fy="134.82954"
       r="48.993553"
       gradientTransform="matrix(-1.0201271,1.2348058,-1.0386361,-1.1340031,514.3289,30.824222)"
       gradientUnits="userSpaceOnUse" />
    <linearGradient
       xlink:href="#treeMidL-3"
       id="linearGradient25"
       gradientUnits="userSpaceOnUse"
       gradientTransform="matrix(0.6614459,0,0,0.76039974,130.47686,19.822081)"
       x1="157.10509"
       y1="36.088932"
       x2="158.87071"
       y2="159.33817" />
  </defs>
  <g
     id="g44"
     transform="matrix(1.728,0,0,1.728,-186.4495,-4.773857)">
    <path
       id="path25-9-4"
       style="fill:url(#linearGradient25);fill-opacity:1;stroke:url(#radialGradient45-0-9);stroke-width:0.354599;stroke-linecap:butt;stroke-linejoin:miter;stroke-dasharray:none;paint-order:markers fill stroke"
       d="m 234.1251,43.417562 c -3.30781,10.222801 -3.84035,13.834999 -10.68555,22.710939 l 6.62996,-2.444567 c -1.93704,8.569101 -8.49267,14.336253 -13.13461,24.304576 l 7.12993,-1.581693 c -4.36734,8.619281 -8.9787,20.956723 -16.0125,27.035533 l 11.75982,-6.18268 c -1.65017,7.49997 -10.33137,21.75081 -17.63835,33.07612 l 32.00649,0.14406 c 4.8e-4,0.0937 32.15119,0 32.15119,0 -7.30698,-11.32532 -15.48779,-26.29669 -17.13796,-33.79666 l 10.88285,6.18415 c -7.03379,-6.07881 -10.89458,-18.27242 -15.6372,-26.31646 l 7.13121,1.581686 C 248.05431,78.164248 240.87191,74.84188 238.43448,63.827994 l 6.62996,2.444566 C 238.99538,57.502853 237.34965,53.625005 234.1251,43.417562 Z" />
    <path
       id="path25"
       style="fill:url(#linearGradient35);fill-opacity:1;stroke:url(#radialGradient45);stroke-width:0.5;stroke-linecap:butt;stroke-linejoin:miter;stroke-dasharray:none;paint-order:markers fill stroke"
       d="m 156.6995,31.030363 c -5.00088,13.443983 -5.80599,18.194377 -16.15484,29.867105 l 10.02344,-3.214844 c -2.9285,11.269206 -12.83956,18.853575 -19.85742,31.962891 l 10.7793,-2.080078 c -6.60271,11.335201 -13.57435,27.560133 -24.20832,35.554363 l 17.77895,-8.13082 c -2.49479,9.8632 -15.61937,28.60443 -26.66634,43.49833 l 48.38867,0.18945 c 7.2e-4,0.12328 48.60743,0 48.60743,0 -11.04697,-14.8939 -23.41505,-34.58271 -25.90984,-44.44591 l 16.45312,8.13277 C 185.29968,114.36939 179.46279,98.33359 172.29271,87.75489 l 10.78125,2.080078 C 177.75823,76.725652 166.89959,72.356413 163.21459,57.872077 l 10.02343,3.214844 C 164.06257,49.553898 161.5745,44.454149 156.6995,31.030363 Z" />
    <path
       id="path25-9"
       style="fill:url(#linearGradient35-7);fill-opacity:1;stroke:url(#radialGradient45-0);stroke-width:0.573073;stroke-linecap:butt;stroke-linejoin:miter;stroke-dasharray:none;paint-order:markers fill stroke"
       d="M 202.99165,3.5932284 C 197.26005,19.00241 196.3373,24.447202 184.47631,37.826212 l 11.48804,-3.68478 c -3.35641,12.916502 -14.71564,21.60953 -22.75893,36.635124 l 12.35434,-2.384137 C 177.99228,81.384563 170.00197,99.981203 157.8142,109.144 l 20.37675,-9.319357 c -2.85932,11.304967 -17.90162,32.785737 -30.56274,49.856777 l 55.45907,0.21714 c 8.2e-4,0.1413 55.70979,0 55.70979,0 -12.66112,-17.07104 -26.83638,-39.6379 -29.6957,-50.942868 l 18.8572,9.321588 C 235.7708,99.114484 229.08104,80.734626 220.86329,68.609566 l 12.35657,2.384137 C 227.12741,55.968109 214.68214,50.960189 210.4587,34.358579 l 11.48802,3.684779 C 211.43059,24.824475 208.57897,18.979261 202.99165,3.5932284 Z" />
    <path
       id="path25-9-7"
       style="fill:url(#linearGradient24);fill-opacity:1;stroke:url(#radialGradient45-0-7);stroke-width:0.545298;stroke-linecap:butt;stroke-linejoin:miter;stroke-dasharray:none;paint-order:markers fill stroke"
       d="m 272.22105,19.25965 c 5.41601,14.764675 6.28795,19.981733 17.49586,32.801151 l -10.8555,-3.53066 c 3.17161,12.376254 13.90538,20.705687 21.5058,35.102818 l -11.6741,-2.284418 c 7.15081,12.448733 14.70116,30.267539 26.21786,39.047099 l -19.25478,-8.92957 c 2.70188,10.83213 16.91593,31.41444 28.87991,47.77147 l -52.40542,0.20805 c -7.7e-4,0.13539 -52.64233,0 -52.64233,0 11.96398,-16.35702 25.35873,-37.98 28.06061,-48.81212 l -17.81889,8.9317 c 11.51669,-8.77955 17.8381,-26.390649 25.60337,-38.008564 l -11.6762,2.284418 c 5.75699,-14.397132 17.51701,-19.19559 21.5079,-35.102819 l -10.85547,3.530659 c 9.9371,-12.665988 12.6317,-18.266719 17.91138,-33.009214 z" />
  </g>
</svg>
